<svg id="chart" xmlns="http://www.w3.org/2000/svg" width="53.186" height="53.186" viewBox="0 0 53.186 53.186">
  <path id="Vector" d="M44.322,1.5H0A1.5,1.5,0,0,1-1.5,0,1.5,1.5,0,0,1,0-1.5H44.322a1.5,1.5,0,0,1,1.5,1.5A1.5,1.5,0,0,1,44.322,1.5Z" transform="translate(4.432 48.754)" fill="#f89c1c"/>
  <path id="Vector-2" data-name="Vector" d="M3.989-1.5H5.983a5.14,5.14,0,0,1,4.3,1.882,6.456,6.456,0,0,1,1.187,4.05V44.322a1.5,1.5,0,0,1-1.5,1.5H0a1.5,1.5,0,0,1-1.5-1.5V4.432A6.456,6.456,0,0,1-.313.382,5.14,5.14,0,0,1,3.989-1.5ZM8.472,42.822V4.432c0-2.577-1.2-2.932-2.489-2.932H3.989C2.7,1.5,1.5,1.855,1.5,4.432V42.822Z" transform="translate(21.607 4.432)" fill="#f89c1c"/>
  <path id="Vector-3" data-name="Vector" d="M3.546-1.5H5.319a4.59,4.59,0,0,1,4,1.95,6.917,6.917,0,0,1,1.041,3.982V31.025a1.5,1.5,0,0,1-1.5,1.5H0a1.5,1.5,0,0,1-1.5-1.5V4.432A6.917,6.917,0,0,1-.459.45,4.59,4.59,0,0,1,3.546-1.5ZM7.364,29.525V4.432C7.364,1.5,5.983,1.5,5.319,1.5H3.546C2.882,1.5,1.5,1.5,1.5,4.432V29.525Z" transform="translate(6.648 17.729)" fill="#f89c1c"/>
  <path id="Vector-4" data-name="Vector" d="M3.546-1.5H5.319a4.59,4.59,0,0,1,4,1.95,6.917,6.917,0,0,1,1.041,3.982V19.945a1.5,1.5,0,0,1-1.5,1.5H0a1.5,1.5,0,0,1-1.5-1.5V4.432A6.917,6.917,0,0,1-.459.45,4.59,4.59,0,0,1,3.546-1.5ZM7.364,18.445V4.432C7.364,1.5,5.983,1.5,5.319,1.5H3.546C2.882,1.5,1.5,1.5,1.5,4.432V18.445Z" transform="translate(37.673 28.809)" fill="#f89c1c"/>
  <path id="Vector-5" data-name="Vector" d="M0,0H53.186V53.186H0Z" fill="none" opacity="0"/>
</svg>
