<svg id="Group_135" data-name="Group 135" xmlns="http://www.w3.org/2000/svg" width="289.993" height="272.432" viewBox="0 0 289.993 272.432">
  <g id="Group_256" data-name="Group 256" transform="translate(0 0)">
    <path id="Path_129" data-name="Path 129" d="M178.509,54.518C164.232,57.038,74.6,72.435,69.334,72.8a9.634,9.634,0,0,0-8.8,7.846l-4.863,26.016a9.62,9.62,0,0,0,11.153,11.26c34.352-6.166,91.376-15.892,110.461-20.1,18.105-3.99,32.882-13.937,40.529-31.423,5.175-11.837,8.417-24.524,12.521-36.829C216.663,46.2,197.987,51.077,178.509,54.518" transform="translate(29.823 129.64)" fill="#142c51"/>
    <path id="Path_130" data-name="Path 130" d="M184.05,24.955C169.773,27.475,80.137,42.872,74.875,43.232a9.64,9.64,0,0,0-8.8,7.846L61.208,77.095A9.62,9.62,0,0,0,72.36,88.355c34.352-6.166,91.376-15.892,110.461-20.1,18.105-3.99,32.882-13.937,40.529-31.423C228.526,24.993,231.768,12.305,235.871,0,222.2,16.635,203.528,21.514,184.05,24.955" transform="translate(54.122)" fill="#142c51"/>
    <path id="Path_131" data-name="Path 131" d="M66.724,185.7C69.832,171.545,97.016,25.816,97.592,20.576a9.642,9.642,0,0,1,8.2-8.476l26.194-3.791a9.628,9.628,0,0,1,10.8,11.611c-7.577,34.072-27.755,147.447-32.747,166.344-4.739,17.922-15.283,32.279-33.071,39.2-12.041,4.685-24.847,7.394-37.314,10.986,17.19-12.962,22.833-31.423,27.071-50.745" transform="translate(-39.653 35.985)" fill="#142c51"/>
    <path id="Path_132" data-name="Path 132" d="M139.851,44.167c-12.8,1.906-25.521,4.389-38.278,6.629-12.849,2.133-22.4,3.657-24.013,3.764a9.645,9.645,0,0,0-8.8,7.846L63.893,88.423a9.639,9.639,0,0,0,7.232,11.164,17.265,17.265,0,0,0,4.54-.027c5.924-.625,15.741-2.2,18.509-2.676,17.071-2.93,34.153-5.832,51.133-9.246,18.918-3.8,35.3-12.386,42.764-31.4,5.256-13.377,8.4-27.583,12.488-41.418C185.776,36.154,163.153,40.7,139.851,44.167" transform="translate(65.901 65.002)" fill="#f89c1c"/>
  </g>
</svg>
