<svg xmlns="http://www.w3.org/2000/svg" width="240.754" height="62.626" viewBox="0 0 240.754 62.626">
  <g id="intellect_export_company-01" data-name="intellect export company-01" transform="translate(0 0.03)">
    <path id="Path_133" data-name="Path 133" d="M67.85,14.41h2.472V28.735H67.85Z" transform="translate(16.01 3.407)" fill="#fff"/>
    <path id="Path_134" data-name="Path 134" d="M82.385,22.107v5.908H79.913V21.477a4.289,4.289,0,0,0-.618-2.608,1.743,1.743,0,0,0-1.335-.816,2.311,2.311,0,0,0-1.434.593,2.9,2.9,0,0,0-.989,1.52,5.166,5.166,0,0,0-.136.976v6.872H72.93V17.571H75.4v1.656a3.411,3.411,0,0,1,1.236-1.236,3.56,3.56,0,0,1,1.829-.531,4.684,4.684,0,0,1,1.594.26,2.917,2.917,0,0,1,1.236.9,3.708,3.708,0,0,1,.816,1.458,7.082,7.082,0,0,1,.272,2.027Z" transform="translate(17.209 4.127)" fill="#fff"/>
    <path id="Path_135" data-name="Path 135" d="M88.642,28.352a3.2,3.2,0,0,0,.853-.136l.124.433a2.188,2.188,0,0,1-.593.173,5.166,5.166,0,0,1-.84.074,5.574,5.574,0,0,1-1.52-.26,2.954,2.954,0,0,1-1.409-.816,2.892,2.892,0,0,1-.655-1.236,6.007,6.007,0,0,1-.173-1.706V18.971H82.19v-.457h2.237v-4.1H86.9v4.1h2.052v.457H86.9V25.88a3.312,3.312,0,0,0,.433,1.767A1.458,1.458,0,0,0,88.642,28.352Z" transform="translate(19.394 3.407)" fill="#fff"/>
    <path id="Path_136" data-name="Path 136" d="M99.766,23.076H91.93a13.163,13.163,0,0,0,.161,2.188,3.6,3.6,0,0,0,.766,1.73,2.311,2.311,0,0,0,1.866.754,4.82,4.82,0,0,0,2.336-.593,4.771,4.771,0,0,0,1.755-1.607l.4.26a5.5,5.5,0,0,1-1.953,1.78,5.364,5.364,0,0,1-2.546.643,5.228,5.228,0,0,1-2.076-.457,5.636,5.636,0,0,1-1.755-1.162,5.574,5.574,0,0,1-1.162-1.755,5.265,5.265,0,0,1-.408-2.039,5.512,5.512,0,0,1,.4-2.052,5.574,5.574,0,0,1,1.112-1.755,5.352,5.352,0,0,1,1.817-1.162,5.24,5.24,0,0,1,4.054,0,5.018,5.018,0,0,1,1.669,1.162,5.932,5.932,0,0,1,1.075,1.755,5.5,5.5,0,0,1,.383,2.052Zm-7.836-.457H97.2a17.639,17.639,0,0,0-.173-2.163,3.621,3.621,0,0,0-.68-1.718,2.274,2.274,0,0,0-3.51,0,3.609,3.609,0,0,0-.717,1.706,13.993,13.993,0,0,0-.185,2.151Z" transform="translate(21.074 4.122)" fill="#fff"/>
    <path id="Path_137" data-name="Path 137" d="M100.17,14.41h2.472V28.735H100.17Z" transform="translate(23.637 3.407)" fill="#fff"/>
    <path id="Path_138" data-name="Path 138" d="M105.27,14.41h2.472V28.735H105.27Z" transform="translate(24.84 3.407)" fill="#fff"/>
    <path id="Path_139" data-name="Path 139" d="M120.137,23.071h-7.824a14.732,14.732,0,0,0,.148,2.188,3.51,3.51,0,0,0,.779,1.73,2.3,2.3,0,0,0,1.866.754,4.857,4.857,0,0,0,4.091-2.225l.4.26a5.5,5.5,0,0,1-1.953,1.78,5.327,5.327,0,0,1-2.472.643,5.179,5.179,0,0,1-2.039-.408,5.5,5.5,0,0,1-1.755-1.162,5.611,5.611,0,0,1-1.236-1.755,5.265,5.265,0,0,1-.408-2.039,5.513,5.513,0,0,1,.4-2.052,5.574,5.574,0,0,1,1.112-1.755,5.4,5.4,0,0,1,1.73-1.162,5.216,5.216,0,0,1,4.042,0,5.018,5.018,0,0,1,1.669,1.162,5.71,5.71,0,0,1,1.458,3.807Zm-7.824-.457h5.253a17.833,17.833,0,0,0-.161-2.163,3.708,3.708,0,0,0-.717-1.693,2.287,2.287,0,0,0-3.522,0,3.708,3.708,0,0,0-.717,1.706,15.884,15.884,0,0,0-.136,2.126Z" transform="translate(25.893 4.127)" fill="#fff"/>
    <path id="Path_140" data-name="Path 140" d="M129.384,25.708l.346.284a7.506,7.506,0,0,1-.531.618,5.352,5.352,0,0,1-5.834,1.162,5.278,5.278,0,0,1-2.917-2.917,5.339,5.339,0,0,1,0-4.091,5.5,5.5,0,0,1,1.162-1.755,5.784,5.784,0,0,1,1.755-1.162,5.364,5.364,0,0,1,5.834,1.162,7.5,7.5,0,0,1,.531.618l-.346.284a6.986,6.986,0,0,0-.507-.569,4.672,4.672,0,0,0-1.582-1.075,5.191,5.191,0,0,0-1.891-.358,2.249,2.249,0,0,0-1.916.816,3.708,3.708,0,0,0-.742,1.792,19.4,19.4,0,0,0,0,4.585,3.857,3.857,0,0,0,.742,1.8,2.249,2.249,0,0,0,1.916.816,4.944,4.944,0,0,0,1.891-.371,4.5,4.5,0,0,0,1.582-1.075A5.39,5.39,0,0,0,129.384,25.708Z" transform="translate(28.326 4.123)" fill="#fff"/>
    <path id="Path_141" data-name="Path 141" d="M135.574,28.352a3.2,3.2,0,0,0,.853-.136l.124.433a2.188,2.188,0,0,1-.593.173,5.277,5.277,0,0,1-.84.074,5.574,5.574,0,0,1-1.52-.26,2.843,2.843,0,0,1-1.409-.816,3.053,3.053,0,0,1-.667-1.236,6.5,6.5,0,0,1-.2-1.743V18.971H129.11v-.457h2.212v-4.1h2.472v4.1h2.052v.457h-2.052V25.88a3.436,3.436,0,0,0,.42,1.767A1.483,1.483,0,0,0,135.574,28.352Z" transform="translate(30.466 3.407)" fill="#fff"/>
    <path id="Path_142" data-name="Path 142" d="M151.652,14.843H145.04v6.476h4.944v.433H145.04v6.526h6.612v.457H142.58V14.41h9.072Z" transform="translate(33.644 3.407)" fill="#fff"/>
    <path id="Path_143" data-name="Path 143" d="M159.894,17.555,156.9,22.066,159.894,28h-2.756L155.1,23.945,152.416,28h-.556l3.016-4.511L151.86,17.53h2.781l2.027,4.054,2.694-4.054Z" transform="translate(35.834 4.144)" fill="#fff"/>
    <path id="Path_144" data-name="Path 144" d="M163.052,17.576v.717a5.36,5.36,0,1,1,2.892,9.863,5.043,5.043,0,0,1-2.892-.853v4.944H160.58V17.576Zm2.892,10.147a2.249,2.249,0,0,0,1.928-.816,3.856,3.856,0,0,0,.742-1.8,17.824,17.824,0,0,0,.124-2.287,17.894,17.894,0,0,0-.124-2.3,3.708,3.708,0,0,0-.742-1.792,2.249,2.249,0,0,0-1.928-.816,4.623,4.623,0,0,0-2.892.952v7.923a4.771,4.771,0,0,0,2.892.939Z" transform="translate(37.892 4.122)" fill="#fff"/>
    <path id="Path_145" data-name="Path 145" d="M181.89,22.816a5.265,5.265,0,0,1-.408,2.039,5.785,5.785,0,0,1-1.162,1.755,5.5,5.5,0,0,1-1.755,1.162,5.339,5.339,0,0,1-4.091,0,5.278,5.278,0,0,1-2.917-2.917,5.339,5.339,0,0,1,0-4.091,5.5,5.5,0,0,1,1.162-1.755,5.784,5.784,0,0,1,1.755-1.162,5.339,5.339,0,0,1,4.091,0,5.379,5.379,0,0,1,3.325,4.969Zm-2.583,0a17.9,17.9,0,0,0-.124-2.3,3.708,3.708,0,0,0-.742-1.792,2.67,2.67,0,0,0-3.844,0,3.708,3.708,0,0,0-.742,1.792,17.9,17.9,0,0,0-.124,2.3,17.824,17.824,0,0,0,.124,2.287,3.856,3.856,0,0,0,.742,1.8,2.67,2.67,0,0,0,3.844,0,3.856,3.856,0,0,0,.742-1.8,17.818,17.818,0,0,0,.124-2.287Z" transform="translate(40.386 4.122)" fill="#fff"/>
    <path id="Path_146" data-name="Path 146" d="M188.51,17.8l-.2.408a3.708,3.708,0,0,0-1.458-.3,1.879,1.879,0,0,0-1.236.457,2.324,2.324,0,0,0-.729.952,6.4,6.4,0,0,0-.247,2.027V28.02H182.17V17.576h2.472v.791a3.053,3.053,0,0,1,2.249-.927,4.091,4.091,0,0,1,.84.087,5.724,5.724,0,0,1,.779.272Z" transform="translate(42.986 4.122)" fill="#fff"/>
    <path id="Path_147" data-name="Path 147" d="M195.227,28.352a3.053,3.053,0,0,0,.84-.136l.136.433a2.188,2.188,0,0,1-.593.173,5.277,5.277,0,0,1-.84.074,5.5,5.5,0,0,1-1.52-.26,2.843,2.843,0,0,1-1.409-.816,2.78,2.78,0,0,1-.667-1.236,6.465,6.465,0,0,1-.21-1.743V18.971H188.8v-.457H191v-4.1h2.472v4.1h2.052v.457h-2.052V25.88a3.313,3.313,0,0,0,.42,1.767,1.483,1.483,0,0,0,1.335.7Z" transform="translate(44.55 3.407)" fill="#fff"/>
    <path id="Path_148" data-name="Path 148" d="M80.642,47.514A7.206,7.206,0,0,1,75.118,50.1a7.045,7.045,0,0,1-3.634-.989,7.322,7.322,0,0,1,0-12.644,7.347,7.347,0,0,1,8.911,1.31l-.284.321a6.612,6.612,0,0,0-4.944-2.175,3.98,3.98,0,0,0-2.472.8,5.475,5.475,0,0,0-1.669,2.151,10.209,10.209,0,0,0-.569,3.906,10.234,10.234,0,0,0,.569,3.918A5.475,5.475,0,0,0,72.7,48.849a3.98,3.98,0,0,0,2.472.8,6.687,6.687,0,0,0,5.228-2.41Z" transform="translate(16.01 8.383)" fill="#fff"/>
    <path id="Path_149" data-name="Path 149" d="M90.61,44.022a5.265,5.265,0,0,1-.408,2.039,5.784,5.784,0,0,1-1.162,1.669,5.5,5.5,0,0,1-1.755,1.162,5.339,5.339,0,0,1-4.091,0,5.278,5.278,0,0,1-2.917-2.917,5.339,5.339,0,0,1,0-4.091,5.5,5.5,0,0,1,1.162-1.755,5.784,5.784,0,0,1,1.755-1.051,5.339,5.339,0,0,1,4.091,0,5.38,5.38,0,0,1,3.325,4.944Zm-2.583,0a17.9,17.9,0,0,0-.124-2.3,3.708,3.708,0,0,0-.742-1.792,2.645,2.645,0,0,0-3.844,0,3.708,3.708,0,0,0-.742,1.792,21.332,21.332,0,0,0,0,4.585,3.856,3.856,0,0,0,.742,1.8,2.67,2.67,0,0,0,3.844,0,3.856,3.856,0,0,0,.742-1.8,17.822,17.822,0,0,0,.124-2.287Z" transform="translate(18.847 9.132)" fill="#fff"/>
    <path id="Path_150" data-name="Path 150" d="M105.568,43.071v6.18H103.1V41.835a4.808,4.808,0,0,0-.309-1.916,1.236,1.236,0,0,0-1.236-.7,1.767,1.767,0,0,0-1.088.358,2.188,2.188,0,0,0-.742.9,4.1,4.1,0,0,0-.26,1.088,11.741,11.741,0,0,0-.074,1.483v6.18H96.916V41.9a5.3,5.3,0,0,0-.3-1.965,1.236,1.236,0,0,0-1.236-.717,1.8,1.8,0,0,0-1.1.358,1.9,1.9,0,0,0-.729.9,5.994,5.994,0,0,0-.223,2.324v6.427H90.86V38.757h2.472v1.372a3.709,3.709,0,0,1,.593-.766,3.424,3.424,0,0,1,4.623.334,4.066,4.066,0,0,1,.63,1.112,2.867,2.867,0,0,1,2.979-2.188,3.152,3.152,0,0,1,2.472,1.075,3.436,3.436,0,0,1,.7,1.446A8.787,8.787,0,0,1,105.568,43.071Z" transform="translate(21.44 9.119)" fill="#fff"/>
    <path id="Path_151" data-name="Path 151" d="M108.092,38.756v.717a5.339,5.339,0,0,1,4.944-.445,5.278,5.278,0,0,1,2.942,2.917,5.4,5.4,0,0,1-2.929,7.033,5.253,5.253,0,0,1-2.064.408,5.043,5.043,0,0,1-2.892-.853v4.944H105.62V38.756ZM111.034,48.9a2.249,2.249,0,0,0,1.928-.816,3.856,3.856,0,0,0,.742-1.8,21.332,21.332,0,0,0,0-4.585,3.708,3.708,0,0,0-.742-1.792,2.225,2.225,0,0,0-1.928-.816,4.635,4.635,0,0,0-2.892.964v7.923A4.771,4.771,0,0,0,111.034,48.9Z" transform="translate(24.923 9.12)" fill="#fff"/>
    <path id="Path_152" data-name="Path 152" d="M126.94,38.756V49.225h-2.472v-.717a5.241,5.241,0,0,1-2.892.853,5.179,5.179,0,0,1-2.039-.408,5.5,5.5,0,0,1-1.755-1.162,5.611,5.611,0,0,1-1.236-1.755,5.488,5.488,0,0,1,0-4.091,5.339,5.339,0,0,1,1.236-1.755,5.5,5.5,0,0,1,1.755-1.162,5.179,5.179,0,0,1,2.039-.408,5.241,5.241,0,0,1,2.892.853v-.717Zm-2.472,9.208V40.017a4.771,4.771,0,0,0-2.892-.939,2.225,2.225,0,0,0-1.928.828,3.708,3.708,0,0,0-.742,1.792,21.334,21.334,0,0,0,0,4.585,3.856,3.856,0,0,0,.742,1.8,2.249,2.249,0,0,0,1.928.816A4.771,4.771,0,0,0,124.468,47.964Z" transform="translate(27.408 9.12)" fill="#fff"/>
    <path id="Path_153" data-name="Path 153" d="M137.267,43.287V49.22h-2.472V42.657a4.276,4.276,0,0,0-.63-2.608,1.743,1.743,0,0,0-1.384-.816,2.336,2.336,0,0,0-1.434.593,2.9,2.9,0,0,0-.989,1.52,6.4,6.4,0,0,0-.136.976v6.9H127.75V38.751h2.472v1.656a3.5,3.5,0,0,1,1.236-1.236,3.461,3.461,0,0,1,1.842-.531,4.573,4.573,0,0,1,1.582.26,3.028,3.028,0,0,1,1.3.9,3.893,3.893,0,0,1,.8,1.458,7.081,7.081,0,0,1,.284,2.027Z" transform="translate(30.145 9.125)" fill="#fff"/>
    <path id="Path_154" data-name="Path 154" d="M146.888,38.73l-4.944,10.716a7.774,7.774,0,0,1-2.472,3.214,3.708,3.708,0,0,1-1.706.667h-.284v-.457a3.251,3.251,0,0,0,1.73-.606,7.5,7.5,0,0,0,2.311-3.065,2.176,2.176,0,0,1,.21-.457L137,38.73h2.719l3.411,7.181,3.337-7.181Z" transform="translate(32.327 9.146)" fill="#fff"/>
    <path id="Path_155" data-name="Path 155" d="M44.084,35.295c-3.288.581-23.854,4.1-25.065,4.19A2.225,2.225,0,0,0,17,41.289l-1.125,5.97a2.212,2.212,0,0,0,2.633,2.62c7.873-1.409,21.011-3.646,25.35-4.61a12.508,12.508,0,0,0,9.257-7.255A84.024,84.024,0,0,0,56,29.56C52.835,33.379,48.546,34.5,44.084,35.295Z" transform="translate(3.736 6.982)" fill="#fff"/>
    <path id="Path_156" data-name="Path 156" d="M49.608,5.73c-3.275.581-23.854,4.165-25,4.165a2.2,2.2,0,0,0-2.015,1.792l-1.112,5.982a2.2,2.2,0,0,0,2.558,2.583c7.885-1.421,21.011-3.646,25.35-4.623a12.508,12.508,0,0,0,9.307-7.206A83.951,83.951,0,0,0,61.56-.03C58.359,3.826,54.07,4.951,49.608,5.73Z" transform="translate(5.058 0)" fill="#fff"/>
    <path id="Path_157" data-name="Path 157" d="M6.18,48.947c.7-3.251,6.946-36.7,7.082-37.907A2.212,2.212,0,0,1,15.141,9.1l6.019-.865a2.2,2.2,0,0,1,2.472,2.657c-1.706,7.824-6.328,33.841-7.478,38.179a12.545,12.545,0,0,1-7.589,9A85.792,85.792,0,0,1,0,60.541C3.943,57.611,5.24,53.372,6.18,48.947Z" transform="translate(0 1.944)" fill="#fff"/>
    <path id="Path_158" data-name="Path 158" d="M41.549,21.556c-2.942.445-5.858,1.013-8.788,1.52s-5.142.84-5.512.865a2.225,2.225,0,0,0-2.027,1.8L24.1,31.716a2.212,2.212,0,0,0,1.669,2.558,3.584,3.584,0,0,0,1.038,0c1.36-.148,3.609-.507,4.252-.618,3.918-.667,7.836-1.335,11.729-2.126,4.338-.865,8.108-2.843,9.814-7.206,1.236-3.065,1.928-6.328,2.867-9.5C52.092,19.714,46.888,20.765,41.549,21.556Z" transform="translate(5.677 3.504)" fill="#f79d1f"/>
  </g>
</svg>
