<!-- Generated by IcoMoon.io -->
<svg version="1.1" xmlns="http://www.w3.org/2000/svg" width="32" height="32" viewBox="0 0 32 32">
<title>li</title>
<path fill="#fff" d="M0.617 11.27h6.417v20.73h-6.417v-20.73z"></path>
<path fill="#fff" d="M3.795 7.651c0.009 0 0.020 0 0.031 0 2.113 0 3.825-1.713 3.825-3.825s-1.713-3.825-3.825-3.825c-2.113 0-3.825 1.713-3.825 3.825v0c0 0.002 0 0.005 0 0.008 0 2.1 1.696 3.805 3.794 3.818h0.001z"></path>
<path fill="#fff" d="M18.195 21.116c0-2.915 1.341-4.65 3.909-4.65 2.359 0 3.494 1.668 3.494 4.65v10.882h6.386v-13.133c0-5.552-3.147-8.237-7.541-8.237-0.030-0-0.065-0.001-0.1-0.001-2.584 0-4.852 1.356-6.129 3.396l-0.018 0.030v-2.792h-6.156v20.73h6.156z"></path>
</svg>
