<!-- Generated by IcoMoon.io -->
<svg version="1.1" xmlns="http://www.w3.org/2000/svg" width="39" height="32" viewBox="0 0 39 32">
<title>Logo-Header</title>
<path fill="#fff" d="M0 20.88h0.613v3.57h-0.613v-3.57z"></path>
<path fill="#fff" d="M3.911 22.973v1.476h-0.613v-1.632c0.002-0.026 0.003-0.056 0.003-0.086 0-0.208-0.059-0.402-0.16-0.567l0.003 0.005c-0.074-0.116-0.199-0.195-0.342-0.203l-0.001-0c-0.139 0.007-0.263 0.063-0.359 0.15l0-0c-0.118 0.094-0.204 0.224-0.243 0.372l-0.001 0.005c-0.017 0.070-0.029 0.152-0.035 0.236l-0 0.005c-0.005 0.081-0.008 0.184-0.008 0.307v1.411h-0.613v-2.605h0.613v0.412c0.078-0.131 0.187-0.238 0.315-0.312l0.004-0.002c0.13-0.081 0.287-0.129 0.455-0.13h0c0.004-0 0.009-0 0.014-0 0.137 0 0.268 0.023 0.39 0.065l-0.008-0.003c0.128 0.047 0.236 0.125 0.319 0.224l0.001 0.001c0.089 0.101 0.158 0.223 0.199 0.356l0.002 0.007c0.042 0.142 0.066 0.306 0.066 0.475 0 0.012-0 0.025-0 0.037l0-0.002z"></path>
<path fill="#fff" d="M6.010 24.346c0.076-0.001 0.148-0.013 0.217-0.034l-0.005 0.001 0.033 0.108c-0.043 0.019-0.094 0.034-0.146 0.040l-0.003 0c-0.063 0.011-0.135 0.018-0.208 0.019h-0c-0.136-0.004-0.265-0.026-0.387-0.065l0.010 0.003c-0.138-0.036-0.257-0.107-0.35-0.203l-0-0c-0.076-0.082-0.134-0.182-0.164-0.294l-0.001-0.005c-0.033-0.121-0.052-0.259-0.052-0.402 0-0.011 0-0.022 0-0.034l-0 0.002v-1.47h-0.548v-0.114h0.548v-1.020h0.613v1.020h0.51v0.114h-0.51v1.72c-0 0.009-0.001 0.020-0.001 0.032 0 0.15 0.039 0.29 0.109 0.412l-0.002-0.004c0.066 0.105 0.181 0.175 0.312 0.175 0.009 0 0.019-0 0.028-0.001l-0.001 0z"></path>
<path fill="#fff" d="M9.194 23.207h-1.947c-0 0.007-0 0.016-0 0.025 0 0.183 0.014 0.362 0.040 0.538l-0.002-0.020c0.025 0.166 0.094 0.313 0.194 0.433l-0.001-0.001c0.104 0.116 0.255 0.189 0.422 0.189 0.015 0 0.029-0.001 0.043-0.002l-0.002 0c0.001 0 0.002 0 0.003 0 0.212 0 0.411-0.055 0.584-0.15l-0.006 0.003c0.181-0.098 0.329-0.236 0.436-0.402l0.003-0.005 0.098 0.065c-0.124 0.185-0.287 0.334-0.478 0.438l-0.007 0.004c-0.183 0.101-0.401 0.16-0.632 0.16-0.183 0-0.357-0.037-0.516-0.104l0.009 0.003c-0.331-0.138-0.589-0.396-0.724-0.718l-0.003-0.009c-0.064-0.148-0.101-0.321-0.101-0.502 0-0.002 0-0.003 0-0.005v0c0-0 0-0 0-0.001 0-0.365 0.143-0.698 0.375-0.944l-0.001 0.001c0.12-0.121 0.262-0.219 0.42-0.287l0.009-0.003c0.147-0.063 0.319-0.1 0.499-0.1 0.002 0 0.004 0 0.006 0h-0c0.002 0 0.005-0 0.007-0 0.179 0 0.349 0.037 0.503 0.103l-0.008-0.003c0.163 0.070 0.301 0.168 0.415 0.29l0.001 0.001c0.112 0.122 0.204 0.266 0.267 0.425l0.003 0.009c0.060 0.15 0.095 0.324 0.095 0.506 0 0.001 0 0.003 0 0.004v-0zM7.247 23.093h1.307c-0.002-0.191-0.017-0.377-0.043-0.559l0.003 0.023c-0.025-0.162-0.088-0.305-0.181-0.425l0.002 0.002c-0.104-0.127-0.261-0.207-0.437-0.207s-0.332 0.080-0.436 0.206l-0.001 0.001c-0.091 0.119-0.155 0.263-0.178 0.421l-0.001 0.005c-0.023 0.152-0.035 0.327-0.035 0.505 0 0.010 0 0.021 0 0.031v-0.002z"></path>
<path fill="#fff" d="M9.933 20.88h0.613v3.569h-0.613v-3.569z"></path>
<path fill="#fff" d="M11.5 20.88h0.613v3.569h-0.613v-3.569z"></path>
<path fill="#fff" d="M15.459 23.207h-1.947c-0 0.007-0 0.016-0 0.025 0 0.183 0.014 0.362 0.040 0.538l-0.002-0.020c0.025 0.166 0.094 0.313 0.194 0.433l-0.001-0.001c0.104 0.116 0.255 0.189 0.422 0.189 0.015 0 0.029-0.001 0.043-0.002l-0.002 0c0.001 0 0.002 0 0.003 0 0.212 0 0.411-0.055 0.584-0.15l-0.006 0.003c0.181-0.098 0.329-0.236 0.436-0.402l0.003-0.005 0.098 0.065c-0.124 0.185-0.287 0.334-0.479 0.438l-0.007 0.004c-0.183 0.101-0.401 0.16-0.632 0.16-0.183 0-0.357-0.037-0.516-0.104l0.009 0.003c-0.331-0.138-0.589-0.396-0.724-0.718l-0.003-0.009c-0.064-0.148-0.101-0.321-0.101-0.502 0-0.002 0-0.003 0-0.005v0c0-0 0-0 0-0.001 0-0.365 0.143-0.698 0.375-0.944l-0.001 0.001c0.12-0.121 0.262-0.219 0.42-0.287l0.009-0.003c0.147-0.063 0.319-0.1 0.499-0.1 0.002 0 0.004 0 0.006 0h-0c0.002 0 0.005-0 0.007-0 0.179 0 0.349 0.037 0.503 0.103l-0.008-0.003c0.163 0.070 0.301 0.168 0.415 0.29l0.001 0.001c0.112 0.122 0.204 0.266 0.267 0.425l0.003 0.009c0.060 0.15 0.095 0.324 0.095 0.506 0 0.001 0 0.003 0 0.004v-0zM13.512 23.093h1.307c-0.002-0.191-0.017-0.377-0.043-0.559l0.003 0.023c-0.025-0.162-0.088-0.305-0.181-0.425l0.002 0.002c-0.104-0.127-0.261-0.207-0.437-0.207s-0.332 0.080-0.436 0.206l-0.001 0.001c-0.091 0.119-0.155 0.263-0.178 0.421l-0.001 0.005c-0.023 0.152-0.035 0.327-0.035 0.505 0 0.010 0 0.021 0 0.031v-0.002z"></path>
<path fill="#fff" d="M18.362 23.869l0.087 0.070c-0.044 0.056-0.086 0.106-0.131 0.153l0.001-0.001c-0.241 0.241-0.573 0.39-0.941 0.39-0.001 0-0.002 0-0.004 0h0c-0.002 0-0.004 0-0.006 0-0.181 0-0.353-0.037-0.51-0.104l0.009 0.003c-0.331-0.138-0.589-0.396-0.723-0.718l-0.003-0.009c-0.063-0.148-0.1-0.321-0.1-0.502 0-0.002 0-0.003 0-0.005v0c0-0.001 0-0.002 0-0.003 0-0.183 0.037-0.357 0.103-0.515l-0.003 0.009c0.070-0.169 0.169-0.313 0.29-0.434l0-0c0.122-0.12 0.267-0.218 0.427-0.287l0.009-0.003c0.148-0.063 0.321-0.1 0.503-0.1 0.002 0 0.003 0 0.005 0h-0c0.001 0 0.002 0 0.003 0 0.183 0 0.357 0.037 0.516 0.103l-0.009-0.003c0.169 0.070 0.313 0.169 0.434 0.29l0 0c0.044 0.046 0.087 0.096 0.127 0.148l0.003 0.004-0.087 0.070c-0.040-0.052-0.081-0.098-0.125-0.141l-0-0c-0.108-0.112-0.239-0.202-0.385-0.263l-0.008-0.003c-0.138-0.058-0.299-0.092-0.467-0.092-0.001 0-0.002 0-0.003 0h0c-0.014-0.001-0.030-0.002-0.046-0.002-0.174 0-0.329 0.080-0.43 0.204l-0.001 0.001c-0.096 0.124-0.161 0.277-0.184 0.443l-0.001 0.005c-0.021 0.171-0.033 0.369-0.033 0.57s0.012 0.399 0.035 0.593l-0.002-0.023c0.023 0.171 0.089 0.323 0.186 0.45l-0.002-0.002c0.103 0.126 0.258 0.205 0.431 0.205 0.016 0 0.032-0.001 0.048-0.002l-0.002 0c0.001 0 0.002 0 0.003 0 0.168 0 0.329-0.034 0.474-0.095l-0.008 0.003c0.153-0.064 0.284-0.154 0.392-0.266l0-0c0.044-0.043 0.085-0.089 0.123-0.138l0.002-0.003z"></path>
<path fill="#fff" d="M20.434 24.346c0.076-0.001 0.148-0.013 0.217-0.034l-0.006 0.001 0.033 0.108c-0.043 0.019-0.094 0.034-0.146 0.040l-0.003 0c-0.063 0.011-0.135 0.018-0.208 0.019h-0c-0.136-0.004-0.265-0.026-0.387-0.065l0.010 0.003c-0.138-0.036-0.257-0.107-0.35-0.203l-0-0c-0.076-0.082-0.134-0.182-0.164-0.294l-0.001-0.005c-0.033-0.121-0.052-0.259-0.052-0.402 0-0.011 0-0.022 0-0.034l-0 0.002v-1.47h-0.548v-0.114h0.548v-1.020h0.613v1.020h0.51v0.114h-0.51v1.72c-0 0.009-0.001 0.020-0.001 0.032 0 0.15 0.039 0.29 0.108 0.412l-0.002-0.004c0.066 0.105 0.181 0.175 0.312 0.175 0.009 0 0.019-0 0.028-0.001l-0.001 0z"></path>
<path fill="#fff" d="M25.224 20.988h-1.644v1.622h1.236v0.108h-1.236v1.622h1.644v0.108h-2.257v-3.569h2.257z"></path>
<path fill="#fff" d="M27.817 21.845l-0.744 1.123 0.744 1.481h-0.684l-0.51-1.009-0.667 1.009h-0.135l0.748-1.123-0.748-1.481h0.689l0.504 1.009 0.672-1.009z"></path>
<path fill="#fff" d="M29.113 21.845v0.179c0.202-0.133 0.449-0.211 0.714-0.211 0.003 0 0.005 0 0.008 0h-0c0.737 0 1.334 0.597 1.334 1.334s-0.597 1.334-1.334 1.334v0c-0.007 0-0.015 0-0.022 0-0.261 0-0.503-0.079-0.704-0.215l0.005 0.003v1.22h-0.613v-3.645zM29.835 24.367c0.014 0.001 0.030 0.002 0.046 0.002 0.174 0 0.329-0.079 0.431-0.204l0.001-0.001c0.095-0.125 0.161-0.277 0.184-0.443l0.001-0.005c0.021-0.171 0.033-0.369 0.033-0.57s-0.012-0.399-0.035-0.593l0.002 0.024c-0.023-0.171-0.089-0.323-0.186-0.45l0.002 0.002c-0.103-0.126-0.258-0.205-0.431-0.205-0.016 0-0.032 0.001-0.048 0.002l0.002-0c-0.005-0-0.010-0-0.016-0-0.267 0-0.512 0.090-0.709 0.241l0.003-0.002v1.969c0.194 0.146 0.439 0.233 0.705 0.233 0.006 0 0.012-0 0.018-0h-0.001z"></path>
<path fill="#fff" d="M34.419 23.147c0 0.001 0 0.003 0 0.005 0 0.181-0.037 0.354-0.104 0.511l0.003-0.009c-0.072 0.169-0.17 0.314-0.29 0.437l0-0c-0.242 0.241-0.575 0.39-0.944 0.39-0.183 0-0.358-0.037-0.516-0.103l0.009 0.003c-0.331-0.138-0.589-0.396-0.724-0.718l-0.003-0.009c-0.063-0.148-0.1-0.321-0.1-0.502 0-0.002 0-0.003 0-0.005v0c0-0.001 0-0.002 0-0.003 0-0.183 0.037-0.357 0.103-0.515l-0.003 0.009c0.071-0.169 0.169-0.313 0.29-0.434l0-0c0.122-0.12 0.267-0.218 0.427-0.287l0.009-0.003c0.148-0.063 0.321-0.1 0.502-0.1 0.002 0 0.004 0 0.006 0h-0c0.001 0 0.002 0 0.003 0 0.736 0 1.332 0.596 1.332 1.332 0 0.001 0 0.002 0 0.003v-0zM33.778 23.147c0-0.011 0-0.024 0-0.037 0-0.188-0.012-0.373-0.035-0.554l0.002 0.022c-0.023-0.171-0.089-0.323-0.186-0.45l0.002 0.002c-0.121-0.125-0.29-0.203-0.477-0.203s-0.357 0.078-0.477 0.203l-0 0c-0.096 0.125-0.161 0.277-0.184 0.443l-0.001 0.005c-0.021 0.171-0.033 0.369-0.033 0.57s0.012 0.399 0.035 0.593l-0.002-0.024c0.023 0.171 0.089 0.323 0.186 0.45l-0.002-0.002c0.121 0.125 0.29 0.203 0.477 0.203s0.357-0.078 0.477-0.203l0-0c0.095-0.125 0.161-0.277 0.184-0.443l0.001-0.005c0.021-0.16 0.033-0.345 0.033-0.533 0-0.013-0-0.026-0-0.039v0.002z"></path>
<path fill="#fff" d="M36.713 21.899l-0.049 0.103c-0.107-0.048-0.232-0.075-0.363-0.076h-0c-0.003-0-0.006-0-0.009-0-0.118 0-0.226 0.043-0.309 0.114l0.001-0.001c-0.078 0.063-0.14 0.143-0.18 0.235l-0.002 0.004c-0.039 0.131-0.061 0.282-0.061 0.437 0 0.024 0.001 0.047 0.002 0.070l-0-0.003v1.665h-0.613v-2.604h0.613v0.196c0.138-0.14 0.33-0.228 0.543-0.228 0.006 0 0.011 0 0.017 0h-0.001c0.004-0 0.008-0 0.013-0 0.070 0 0.137 0.008 0.202 0.023l-0.006-0.001c0.081 0.021 0.149 0.043 0.215 0.069l-0.012-0.004z"></path>
<path fill="#fff" d="M38.779 24.346c0.076-0.001 0.148-0.013 0.217-0.034l-0.005 0.001 0.033 0.108c-0.043 0.019-0.094 0.034-0.147 0.040l-0.003 0c-0.063 0.011-0.135 0.018-0.208 0.019h-0c-0.136-0.004-0.265-0.026-0.387-0.065l0.010 0.003c-0.138-0.036-0.257-0.107-0.35-0.203l-0-0c-0.076-0.082-0.134-0.182-0.164-0.294l-0.001-0.005c-0.033-0.121-0.052-0.259-0.052-0.402 0-0.011 0-0.022 0-0.034l-0 0.002v-1.47h-0.548v-0.114h0.548v-1.020h0.613v1.020h0.51v0.114h-0.51v1.72c-0 0.009-0.001 0.020-0.001 0.032 0 0.15 0.039 0.29 0.108 0.412l-0.002-0.004c0.066 0.105 0.181 0.175 0.312 0.175 0.009 0 0.019-0 0.028-0.001l-0.001 0z"></path>
<path fill="#fff" d="M10.752 30.351c-0.331 0.393-0.823 0.641-1.373 0.641-0.333 0-0.644-0.091-0.911-0.249l0.008 0.005c-0.275-0.163-0.498-0.386-0.654-0.654l-0.005-0.009c-0.153-0.261-0.244-0.576-0.244-0.911s0.091-0.65 0.249-0.92l-0.005 0.009c0.161-0.276 0.383-0.5 0.649-0.657l0.008-0.005c0.259-0.153 0.571-0.244 0.905-0.244 0.259 0 0.506 0.055 0.729 0.154l-0.011-0.005c0.232 0.103 0.43 0.245 0.593 0.419l0.001 0.001-0.071 0.081c-0.303-0.334-0.739-0.542-1.223-0.542-0.007 0-0.013 0-0.020 0h0.001c-0.002-0-0.005-0-0.008-0-0.226 0-0.435 0.075-0.602 0.203l0.002-0.002c-0.18 0.138-0.322 0.318-0.412 0.526l-0.003 0.009c-0.093 0.253-0.147 0.545-0.147 0.85 0 0.044 0.001 0.087 0.003 0.13l-0-0.006c-0.002 0.037-0.003 0.080-0.003 0.124 0 0.305 0.054 0.597 0.152 0.868l-0.006-0.018c0.093 0.216 0.235 0.396 0.412 0.532l0.003 0.002c0.165 0.125 0.373 0.201 0.599 0.201 0.003 0 0.006 0 0.009-0h-0c0.004 0 0.009 0 0.014 0 0.518 0 0.981-0.238 1.286-0.61l0.002-0.003z"></path>
<path fill="#fff" d="M13.936 29.657c0 0.001 0 0.003 0 0.005 0 0.181-0.037 0.354-0.104 0.511l0.003-0.009c-0.072 0.169-0.17 0.314-0.29 0.437l0-0c-0.242 0.241-0.575 0.39-0.944 0.39-0.183 0-0.357-0.037-0.516-0.103l0.009 0.003c-0.331-0.138-0.589-0.396-0.724-0.718l-0.003-0.009c-0.063-0.148-0.1-0.321-0.1-0.502 0-0.002 0-0.003 0-0.005v0c0-0.001 0-0.002 0-0.003 0-0.183 0.037-0.357 0.103-0.515l-0.003 0.009c0.071-0.169 0.169-0.313 0.29-0.434l0-0c0.122-0.12 0.267-0.218 0.427-0.287l0.009-0.003c0.148-0.063 0.321-0.1 0.502-0.1 0.002 0 0.005 0 0.007 0h-0c0.001 0 0.002 0 0.003 0 0.736 0 1.332 0.596 1.332 1.332 0 0.001 0 0.002 0 0.003v-0zM13.296 29.657c0-0.011 0-0.024 0-0.037 0-0.188-0.012-0.373-0.035-0.554l0.002 0.022c-0.023-0.171-0.089-0.323-0.186-0.45l0.002 0.002c-0.121-0.125-0.29-0.203-0.477-0.203s-0.357 0.078-0.477 0.203l-0 0c-0.095 0.125-0.161 0.277-0.184 0.443l-0.001 0.005c-0.021 0.171-0.033 0.369-0.033 0.57s0.012 0.399 0.035 0.593l-0.002-0.024c0.023 0.171 0.089 0.323 0.186 0.45l-0.002-0.002c0.121 0.125 0.29 0.203 0.477 0.203s0.357-0.078 0.477-0.203l0-0c0.095-0.125 0.161-0.277 0.184-0.443l0.001-0.005c0.021-0.16 0.033-0.345 0.033-0.533 0-0.013-0-0.026-0-0.039v0.002z"></path>
<path fill="#fff" d="M18.302 29.429v1.531h-0.613v-1.531l0.006-0.304c0.001-0.014 0.001-0.031 0.001-0.048 0-0.153-0.028-0.299-0.080-0.434l0.003 0.008c-0.046-0.105-0.15-0.178-0.27-0.178-0.010 0-0.020 0-0.029 0.001l0.001-0c-0.102 0-0.196 0.034-0.272 0.090l0.001-0.001c-0.080 0.057-0.143 0.133-0.183 0.222l-0.001 0.003c-0.030 0.078-0.053 0.17-0.065 0.264l-0.001 0.006c-0.010 0.1-0.016 0.215-0.016 0.332 0 0.014 0 0.028 0 0.042l-0-0.002v1.53h-0.613v-1.531l0.005-0.287c0.001-0.015 0.001-0.033 0.001-0.051 0-0.157-0.027-0.307-0.077-0.447l0.003 0.009c-0.045-0.107-0.149-0.181-0.27-0.181-0.011 0-0.022 0.001-0.033 0.002l0.001-0c-0.103 0-0.198 0.034-0.276 0.090l0.001-0.001c-0.081 0.055-0.143 0.132-0.18 0.222l-0.001 0.003c-0.056 0.15-0.088 0.324-0.088 0.505 0 0.019 0 0.038 0.001 0.056l-0-0.003v1.612h-0.613v-2.605h0.613v0.342c0.042-0.073 0.090-0.135 0.147-0.19l0-0c0.133-0.115 0.307-0.185 0.497-0.185 0.010 0 0.020 0 0.030 0.001l-0.001-0c0.012-0.001 0.027-0.001 0.041-0.001 0.233 0 0.441 0.103 0.582 0.266l0.001 0.001c0.064 0.079 0.117 0.171 0.155 0.27l0.002 0.007c0.037-0.142 0.111-0.264 0.211-0.358l0-0c0.133-0.115 0.308-0.185 0.499-0.185 0.011 0 0.022 0 0.034 0.001l-0.002-0c0.010-0 0.021-0.001 0.033-0.001 0.235 0 0.446 0.103 0.591 0.266l0.001 0.001c0.084 0.1 0.145 0.222 0.175 0.355l0.001 0.006c0.029 0.135 0.046 0.29 0.046 0.449 0 0.011-0 0.022-0 0.033l0-0.002z"></path>
<path fill="#fff" d="M19.794 28.355v0.179c0.202-0.133 0.449-0.211 0.714-0.211 0.003 0 0.005 0 0.008 0h-0c0.002 0 0.004 0 0.005 0 0.367 0 0.7 0.149 0.94 0.39l0 0c0.122 0.121 0.22 0.265 0.287 0.425l0.003 0.009c0.064 0.151 0.101 0.326 0.101 0.51s-0.037 0.359-0.104 0.519l0.003-0.009c-0.070 0.169-0.168 0.313-0.29 0.434l-0 0c-0.238 0.241-0.569 0.39-0.935 0.39-0.003 0-0.007 0-0.010-0h0.001c-0.007 0-0.015 0-0.022 0-0.261 0-0.503-0.079-0.704-0.215l0.005 0.003v1.22h-0.613v-3.645zM20.516 30.877c0.014 0.001 0.030 0.002 0.046 0.002 0.174 0 0.329-0.079 0.431-0.204l0.001-0.001c0.095-0.125 0.161-0.277 0.184-0.443l0.001-0.005c0.021-0.171 0.032-0.369 0.032-0.57s-0.012-0.399-0.035-0.593l0.002 0.024c-0.023-0.171-0.089-0.323-0.186-0.45l0.002 0.002c-0.103-0.126-0.258-0.205-0.432-0.205-0.016 0-0.032 0.001-0.048 0.002l0.002-0c-0.005-0-0.010-0-0.016-0-0.267 0-0.512 0.090-0.709 0.241l0.003-0.002v1.969c0.194 0.146 0.439 0.233 0.705 0.233 0.006 0 0.012-0 0.018-0h-0.001z"></path>
<path fill="#fff" d="M25.099 28.355v2.605h-0.613v-0.179c-0.204 0.133-0.453 0.212-0.721 0.212-0.183 0-0.357-0.037-0.516-0.103l0.009 0.003c-0.331-0.138-0.589-0.396-0.724-0.718l-0.003-0.009c-0.063-0.148-0.1-0.321-0.1-0.502 0-0.002 0-0.003 0-0.005v0c0-0.001 0-0.002 0-0.003 0-0.183 0.037-0.357 0.103-0.515l-0.003 0.009c0.071-0.169 0.169-0.313 0.29-0.434l0-0c0.122-0.12 0.267-0.218 0.427-0.287l0.009-0.003c0.15-0.063 0.324-0.1 0.507-0.1 0.268 0 0.517 0.079 0.727 0.215l-0.005-0.003v-0.179zM24.486 30.644v-1.975c-0.194-0.146-0.439-0.233-0.704-0.233-0.006 0-0.012 0-0.018 0h0.001c-0.014-0.001-0.030-0.002-0.046-0.002-0.174 0-0.328 0.079-0.43 0.204l-0.001 0.001c-0.096 0.125-0.161 0.277-0.184 0.443l-0.001 0.005c-0.021 0.171-0.033 0.369-0.033 0.57s0.012 0.399 0.035 0.593l-0.002-0.024c0.023 0.171 0.089 0.323 0.186 0.45l-0.002-0.002c0.103 0.126 0.258 0.205 0.431 0.205 0.016 0 0.032-0.001 0.048-0.002l-0.002 0c0.005 0 0.011 0 0.017 0 0.265 0 0.51-0.088 0.707-0.236l-0.003 0.002z"></path>
<path fill="#fff" d="M28.348 29.483v1.477h-0.613v-1.634c0.002-0.026 0.003-0.056 0.003-0.086 0-0.208-0.059-0.402-0.16-0.567l0.003 0.005c-0.074-0.116-0.199-0.195-0.342-0.203l-0.001-0c-0.139 0.007-0.263 0.063-0.359 0.15l0-0c-0.118 0.094-0.204 0.224-0.243 0.372l-0.001 0.005c-0.017 0.070-0.029 0.152-0.035 0.236l-0 0.005c-0.005 0.081-0.008 0.184-0.008 0.307v1.411h-0.613v-2.604h0.613v0.412c0.164-0.263 0.449-0.437 0.775-0.445l0.001-0c0.005-0 0.011-0 0.017-0 0.136 0 0.266 0.023 0.388 0.064l-0.008-0.003c0.128 0.047 0.236 0.125 0.319 0.224l0.001 0.001c0.089 0.101 0.158 0.223 0.199 0.356l0.002 0.007c0.042 0.142 0.066 0.306 0.066 0.475 0 0.012-0 0.025-0 0.037l0-0.002z"></path>
<path fill="#fff" d="M31.294 28.355l-1.242 2.664c-0.133 0.328-0.343 0.601-0.609 0.806l-0.004 0.003c-0.119 0.087-0.262 0.147-0.419 0.168l-0.005 0-0.070 0.005v-0.114c0.162-0.009 0.309-0.064 0.43-0.153l-0.002 0.002c0.251-0.197 0.448-0.454 0.57-0.748l0.005-0.012c0.016-0.044 0.034-0.082 0.056-0.117l-0.002 0.003-1.187-2.506h0.678l0.846 1.785 0.83-1.785z"></path>
<path fill="#fff" d="M24.078 10.51c-0.815 0.144-5.931 1.022-6.231 1.043-0.252 0.018-0.456 0.203-0.502 0.444l-0.001 0.003-0.278 1.485c-0.006 0.031-0.010 0.066-0.010 0.102 0 0.303 0.246 0.549 0.549 0.549 0.034 0 0.068-0.003 0.101-0.009l-0.003 0.001c1.961-0.352 5.215-0.908 6.305-1.147 1.033-0.228 1.877-0.795 2.313-1.793 0.294-0.676 0.48-1.4 0.715-2.102-0.78 0.949-1.846 1.228-2.958 1.424z"></path>
<path fill="#fff" d="M25.781 1.424c-0.815 0.144-5.931 1.022-6.231 1.043-0.252 0.018-0.455 0.203-0.502 0.444l-0.001 0.003-0.277 1.485c-0.006 0.031-0.010 0.066-0.010 0.102 0 0.303 0.246 0.549 0.549 0.549 0.034 0 0.068-0.003 0.101-0.009l-0.003 0.001c1.961-0.352 5.215-0.908 6.305-1.147 1.033-0.228 1.877-0.795 2.313-1.793 0.294-0.675 0.48-1.4 0.714-2.102-0.78 0.949-1.846 1.228-2.958 1.424z"></path>
<path fill="#fff" d="M13.732 12.652c0.177-0.808 1.729-9.126 1.762-9.424 0.029-0.25 0.221-0.447 0.465-0.483l0.003-0 1.495-0.216c0.024-0.004 0.052-0.006 0.080-0.006 0.303 0 0.549 0.246 0.549 0.55 0 0.042-0.005 0.083-0.014 0.122l0.001-0.004c-0.433 1.945-1.584 8.414-1.869 9.494-0.27 1.023-0.872 1.842-1.887 2.237-0.687 0.267-1.418 0.422-2.13 0.627 0.981-0.74 1.303-1.793 1.545-2.896z"></path>
<path fill="#f89c1c" d="M23.93 6.231c-0.731 0.109-1.456 0.25-2.185 0.378-0.733 0.123-1.278 0.209-1.371 0.215-0.252 0.018-0.455 0.203-0.502 0.444l-0.001 0.003-0.277 1.485c-0.006 0.031-0.010 0.066-0.010 0.103 0 0.259 0.178 0.475 0.419 0.534l0.004 0.001c0.037 0.005 0.080 0.008 0.124 0.008 0.048 0 0.095-0.003 0.14-0.010l-0.005 0.001c0.338-0.036 0.898-0.126 1.056-0.153 0.974-0.167 1.949-0.333 2.919-0.528 1.079-0.217 2.015-0.707 2.441-1.791 0.3-0.763 0.48-1.574 0.713-2.364-0.844 1.218-2.134 1.477-3.465 1.675z"></path>
</svg>
