<svg xmlns="http://www.w3.org/2000/svg" xmlns:xlink="http://www.w3.org/1999/xlink" width="159.076" height="130.445" viewBox="0 0 159.076 130.445">
  <defs>
    <clipPath id="clip-path">
      <rect id="Rectangle_20" data-name="Rectangle 20" width="159.076" height="130.445" fill="#142c51"/>
    </clipPath>
  </defs>
  <g id="Group_687" data-name="Group 687" transform="translate(0 0)">
    <rect id="Rectangle_17" data-name="Rectangle 17" width="2.497" height="14.551" transform="translate(0 85.114)" fill="#142c51"/>
    <g id="Group_135" data-name="Group 135" transform="translate(0 0)">
      <g id="Group_134" data-name="Group 134" clip-path="url(#clip-path)">
        <path id="Path_110" data-name="Path 110" d="M14.675,75.7v6.015h-2.5V75.061a4.4,4.4,0,0,0-.629-2.642,1.772,1.772,0,0,0-1.4-.829,2.353,2.353,0,0,0-1.46.608,2.871,2.871,0,0,0-.995,1.537,6.376,6.376,0,0,0-.144.984c-.021.332-.034.749-.034,1.25v5.75h-2.5V71.1h2.5v1.68A3.536,3.536,0,0,1,8.816,71.5a3.558,3.558,0,0,1,1.857-.53,4.89,4.89,0,0,1,1.615.254,3.06,3.06,0,0,1,1.306.917,3.948,3.948,0,0,1,.817,1.481,7.15,7.15,0,0,1,.266,2.08" transform="translate(1.268 17.948)" fill="#142c51"/>
        <path id="Path_111" data-name="Path 111" d="M20.876,82.064a3.173,3.173,0,0,0,.862-.132l.133.442a2.205,2.205,0,0,1-.608.165,5.1,5.1,0,0,1-.851.076,5.737,5.737,0,0,1-1.537-.254,2.984,2.984,0,0,1-1.426-.828,2.876,2.876,0,0,1-.674-1.217,6.4,6.4,0,0,1-.212-1.769V72.556H14.331v-.464h2.233V67.935h2.5v4.157h2.079v.464H19.063v7.01a3.4,3.4,0,0,0,.431,1.79,1.493,1.493,0,0,0,1.382.708" transform="translate(3.624 17.18)" fill="#142c51"/>
        <path id="Path_112" data-name="Path 112" d="M32.044,76.652H24.106a14.514,14.514,0,0,0,.154,2.211,3.564,3.564,0,0,0,.786,1.758,2.311,2.311,0,0,0,1.891.763,4.917,4.917,0,0,0,2.367-.6,4.832,4.832,0,0,0,1.79-1.659l.4.264a5.514,5.514,0,0,1-1.978,1.8,5.417,5.417,0,0,1-4.644.243,5.405,5.405,0,0,1-2.963-2.963,5.32,5.32,0,0,1-.41-2.067,5.607,5.607,0,0,1,1.526-3.848,5.43,5.43,0,0,1,1.747-1.183,5.27,5.27,0,0,1,2.057-.408,5.186,5.186,0,0,1,2.045.408,4.985,4.985,0,0,1,1.693,1.183,5.644,5.644,0,0,1,1.1,1.769,5.708,5.708,0,0,1,.386,2.079Zm-7.938-.464h5.329A16.983,16.983,0,0,0,29.269,74a3.745,3.745,0,0,0-.73-1.724,2.3,2.3,0,0,0-3.559,0,3.738,3.738,0,0,0-.729,1.735,14.757,14.757,0,0,0-.144,2.179" transform="translate(5.436 17.948)" fill="#142c51"/>
        <rect id="Rectangle_18" data-name="Rectangle 18" width="2.5" height="14.55" transform="translate(40.489 85.114)" fill="#142c51"/>
        <rect id="Rectangle_19" data-name="Rectangle 19" width="2.5" height="14.55" transform="translate(46.88 85.114)" fill="#142c51"/>
        <path id="Path_113" data-name="Path 113" d="M52.428,76.652H44.49a14.514,14.514,0,0,0,.154,2.211,3.553,3.553,0,0,0,.786,1.758,2.311,2.311,0,0,0,1.891.763,4.917,4.917,0,0,0,2.367-.6,4.832,4.832,0,0,0,1.79-1.659l.4.264a5.507,5.507,0,0,1-1.98,1.8,5.414,5.414,0,0,1-4.643.243,5.405,5.405,0,0,1-2.963-2.963,5.32,5.32,0,0,1-.41-2.067,5.607,5.607,0,0,1,1.526-3.848,5.43,5.43,0,0,1,1.747-1.183,5.27,5.27,0,0,1,2.057-.408,5.186,5.186,0,0,1,2.045.408,5,5,0,0,1,1.693,1.183,5.644,5.644,0,0,1,1.1,1.769,5.708,5.708,0,0,1,.386,2.079Zm-7.938-.464h5.329A16.984,16.984,0,0,0,49.653,74a3.745,3.745,0,0,0-.73-1.724,2.3,2.3,0,0,0-3.559,0,3.738,3.738,0,0,0-.729,1.735,14.756,14.756,0,0,0-.144,2.179" transform="translate(10.591 17.948)" fill="#142c51"/>
        <path id="Path_114" data-name="Path 114" d="M61.653,79.351l.353.287a8.1,8.1,0,0,1-.531.62,5.415,5.415,0,0,1-3.848,1.591,5.3,5.3,0,0,1-2.067-.41A5.405,5.405,0,0,1,52.6,78.476a5.342,5.342,0,0,1-.408-2.067,5.424,5.424,0,0,1,.408-2.077,5.36,5.36,0,0,1,1.184-1.77,5.648,5.648,0,0,1,1.779-1.183,5.346,5.346,0,0,1,2.067-.408,5.436,5.436,0,0,1,2.08.408,5.359,5.359,0,0,1,1.768,1.183,8.106,8.106,0,0,1,.531.62l-.353.287a6,6,0,0,0-.51-.575,4.683,4.683,0,0,0-1.6-1.084,5.008,5.008,0,0,0-1.914-.376,2.265,2.265,0,0,0-1.944.829,3.833,3.833,0,0,0-.752,1.824,20.169,20.169,0,0,0,0,4.643,3.832,3.832,0,0,0,.752,1.825,2.267,2.267,0,0,0,1.944.828,5.007,5.007,0,0,0,1.914-.375,4.686,4.686,0,0,0,1.6-1.085,5.85,5.85,0,0,0,.51-.574" transform="translate(13.198 17.948)" fill="#142c51"/>
        <path id="Path_115" data-name="Path 115" d="M67.805,82.064a3.172,3.172,0,0,0,.862-.132l.133.442a2.205,2.205,0,0,1-.608.165,5.1,5.1,0,0,1-.851.076,5.736,5.736,0,0,1-1.537-.254,2.984,2.984,0,0,1-1.426-.828,2.876,2.876,0,0,1-.674-1.217,6.4,6.4,0,0,1-.212-1.769V72.556H61.26v-.464h2.233V67.935h2.5v4.157h2.079v.464H65.992v7.01a3.4,3.4,0,0,0,.431,1.79,1.493,1.493,0,0,0,1.382.708" transform="translate(15.492 17.18)" fill="#142c51"/>
        <path id="Path_116" data-name="Path 116" d="M83.924,68.376h-6.7v6.612h5.04v.442h-5.04v6.612h6.7v.442h-9.2V67.934h9.2Z" transform="translate(18.898 17.18)" fill="#142c51"/>
        <path id="Path_117" data-name="Path 117" d="M92.148,71.075l-3.031,4.577,3.031,6.038H89.361l-2.079-4.113-2.72,4.113H84.01l3.051-4.577L84.01,71.075h2.809l2.056,4.113,2.741-4.113Z" transform="translate(21.246 17.974)" fill="#142c51"/>
        <path id="Path_118" data-name="Path 118" d="M95.226,71.1v.73a5.349,5.349,0,0,1,2.942-.862,5.439,5.439,0,1,1,0,10.878,5.141,5.141,0,0,1-2.942-.862v4.975h-2.5V71.1Zm2.942,10.283a2.268,2.268,0,0,0,1.946-.828,3.867,3.867,0,0,0,.752-1.825,20.359,20.359,0,0,0,0-4.643,3.867,3.867,0,0,0-.752-1.825,2.268,2.268,0,0,0-1.946-.828,4.745,4.745,0,0,0-2.942.972v8.027a4.813,4.813,0,0,0,2.942.951" transform="translate(23.451 17.948)" fill="#142c51"/>
        <path id="Path_119" data-name="Path 119" d="M114.18,76.409a5.32,5.32,0,0,1-.41,2.067,5.675,5.675,0,0,1-1.183,1.78,5.446,5.446,0,0,1-5.916,1.183,5.416,5.416,0,0,1-2.963-2.963,5.341,5.341,0,0,1-.408-2.067,5.43,5.43,0,0,1,.408-2.079,5.368,5.368,0,0,1,1.184-1.769,5.648,5.648,0,0,1,1.779-1.183,5.328,5.328,0,0,1,2.067-.408,5.429,5.429,0,0,1,5.441,5.439m-2.61,0a17.7,17.7,0,0,0-.133-2.322,3.867,3.867,0,0,0-.752-1.825,2.7,2.7,0,0,0-3.891,0,3.855,3.855,0,0,0-.752,1.825,20.361,20.361,0,0,0,0,4.643,3.855,3.855,0,0,0,.752,1.825,2.7,2.7,0,0,0,3.891,0,3.867,3.867,0,0,0,.752-1.825,17.7,17.7,0,0,0,.133-2.322" transform="translate(26.124 17.948)" fill="#142c51"/>
        <path id="Path_120" data-name="Path 120" d="M120.752,71.323l-.2.42a3.752,3.752,0,0,0-1.481-.309,1.93,1.93,0,0,0-1.294.464,2.523,2.523,0,0,0-.74.974,6.514,6.514,0,0,0-.243,2.056v6.789h-2.5V71.1h2.5v.8a3.1,3.1,0,0,1,2.278-.927,3.666,3.666,0,0,1,.852.088,7.017,7.017,0,0,1,.828.266" transform="translate(28.905 17.948)" fill="#142c51"/>
        <path id="Path_121" data-name="Path 121" d="M127.493,82.064a3.172,3.172,0,0,0,.862-.132l.133.442a2.206,2.206,0,0,1-.608.165,5.1,5.1,0,0,1-.851.076,5.737,5.737,0,0,1-1.537-.254,2.984,2.984,0,0,1-1.426-.828,2.876,2.876,0,0,1-.674-1.217,6.4,6.4,0,0,1-.212-1.769V72.556h-2.233v-.464h2.233V67.935h2.5v4.157h2.079v.464H125.68v7.01a3.4,3.4,0,0,0,.431,1.79,1.493,1.493,0,0,0,1.382.708" transform="translate(30.587 17.18)" fill="#142c51"/>
        <path id="Path_122" data-name="Path 122" d="M37.6,101.214a7.3,7.3,0,0,1-9.276,1.615,7.433,7.433,0,0,1-2.686-2.7,7.433,7.433,0,0,1,0-7.43A7.418,7.418,0,0,1,28.319,90a7.335,7.335,0,0,1,6.612-.387,7.38,7.38,0,0,1,2.422,1.714l-.288.332A6.734,6.734,0,0,0,32,89.45a4.056,4.056,0,0,0-2.477.818,5.389,5.389,0,0,0-1.691,2.179,10.327,10.327,0,0,0-.586,3.969,10.336,10.336,0,0,0,.586,3.969,5.393,5.393,0,0,0,1.691,2.178,4.056,4.056,0,0,0,2.477.818,6.763,6.763,0,0,0,5.306-2.5Z" transform="translate(6.231 22.51)" fill="#142c51"/>
        <path id="Path_123" data-name="Path 123" d="M47.537,97.589a5.32,5.32,0,0,1-.41,2.067,5.653,5.653,0,0,1-1.183,1.78,5.446,5.446,0,0,1-5.916,1.183,5.416,5.416,0,0,1-2.963-2.963,5.342,5.342,0,0,1-.408-2.067,5.43,5.43,0,0,1,.408-2.079,5.368,5.368,0,0,1,1.184-1.769,5.648,5.648,0,0,1,1.779-1.183A5.328,5.328,0,0,1,42.1,92.15a5.429,5.429,0,0,1,5.441,5.439m-2.61,0a17.7,17.7,0,0,0-.133-2.322,3.867,3.867,0,0,0-.752-1.825,2.7,2.7,0,0,0-3.891,0,3.855,3.855,0,0,0-.752,1.825,20.359,20.359,0,0,0,0,4.643,3.855,3.855,0,0,0,.752,1.825,2.7,2.7,0,0,0,3.891,0,3.867,3.867,0,0,0,.752-1.825,17.7,17.7,0,0,0,.133-2.322" transform="translate(9.27 23.304)" fill="#142c51"/>
        <path id="Path_124" data-name="Path 124" d="M62.556,96.659V102.9h-2.5V96.659l.023-1.238a4.976,4.976,0,0,0-.309-1.934,1.2,1.2,0,0,0-1.217-.719,1.857,1.857,0,0,0-1.105.365,2.208,2.208,0,0,0-.752.917,4.737,4.737,0,0,0-.266,1.1,13.725,13.725,0,0,0-.066,1.515V102.9h-2.5V96.659l.021-1.171a5.388,5.388,0,0,0-.3-1.991,1.189,1.189,0,0,0-1.227-.729,1.908,1.908,0,0,0-1.118.365,2.04,2.04,0,0,0-.74.917,6.093,6.093,0,0,0-.355,2.279V102.9h-2.5V92.282h2.5v1.393a3.427,3.427,0,0,1,.6-.774,3.1,3.1,0,0,1,2.145-.752,3.138,3.138,0,0,1,2.543,1.084,4.091,4.091,0,0,1,.641,1.128,3.03,3.03,0,0,1,.862-1.46,3.123,3.123,0,0,1,2.166-.752,3.216,3.216,0,0,1,2.543,1.084,3.475,3.475,0,0,1,.719,1.47,8.961,8.961,0,0,1,.188,1.957" transform="translate(12.051 23.304)" fill="#142c51"/>
        <path id="Path_125" data-name="Path 125" d="M64.905,92.282v.73a5.349,5.349,0,0,1,2.942-.862A5.407,5.407,0,0,1,71.7,93.741a5.341,5.341,0,0,1,1.181,1.769,5.477,5.477,0,0,1,0,4.157,5.341,5.341,0,0,1-1.181,1.769,5.356,5.356,0,0,1-3.849,1.591,5.141,5.141,0,0,1-2.942-.862v4.975h-2.5V92.282Zm2.942,10.282a2.27,2.27,0,0,0,1.946-.828,3.869,3.869,0,0,0,.753-1.825,20.55,20.55,0,0,0,0-4.643,3.869,3.869,0,0,0-.753-1.825,2.27,2.27,0,0,0-1.946-.828,4.745,4.745,0,0,0-2.942.972v8.027a4.813,4.813,0,0,0,2.942.951" transform="translate(15.783 23.304)" fill="#142c51"/>
        <path id="Path_126" data-name="Path 126" d="M83.859,92.282V102.9h-2.5v-.73a5.445,5.445,0,0,1-5.009.454,5.416,5.416,0,0,1-2.963-2.963,5.342,5.342,0,0,1-.408-2.067,5.43,5.43,0,0,1,.408-2.079,5.368,5.368,0,0,1,1.184-1.769,5.648,5.648,0,0,1,1.779-1.183,5.445,5.445,0,0,1,5.009.454v-.73Zm-2.5,9.332V93.565a4.808,4.808,0,0,0-2.942-.951,2.267,2.267,0,0,0-1.944.828,3.855,3.855,0,0,0-.752,1.825,20.358,20.358,0,0,0,0,4.643,3.855,3.855,0,0,0,.752,1.825,2.267,2.267,0,0,0,1.944.828,4.808,4.808,0,0,0,2.942-.951" transform="translate(18.456 23.304)" fill="#142c51"/>
        <path id="Path_127" data-name="Path 127" d="M94.184,96.881V102.9h-2.5V96.24a4.4,4.4,0,0,0-.629-2.642,1.772,1.772,0,0,0-1.4-.829,2.353,2.353,0,0,0-1.46.608,2.871,2.871,0,0,0-.995,1.537,6.375,6.375,0,0,0-.144.984c-.021.332-.034.749-.034,1.25v5.75h-2.5V92.282h2.5v1.68a3.811,3.811,0,0,1,3.162-1.813A4.89,4.89,0,0,1,91.8,92.4a3.06,3.06,0,0,1,1.306.917,3.948,3.948,0,0,1,.817,1.481,7.15,7.15,0,0,1,.266,2.08" transform="translate(21.375 23.304)" fill="#142c51"/>
        <path id="Path_128" data-name="Path 128" d="M103.858,92.255l-5.064,10.858a7.777,7.777,0,0,1-2.5,3.3,3.708,3.708,0,0,1-1.726.685l-.286.021v-.464a3.255,3.255,0,0,0,1.745-.619,7.531,7.531,0,0,0,2.344-3.1,2.639,2.639,0,0,1,.222-.465L93.753,92.255h2.764l3.449,7.276,3.383-7.276Z" transform="translate(23.71 23.331)" fill="#142c51"/>
        <path id="Path_129" data-name="Path 129" d="M84.116,35.369c-3.321.586-24.176,4.168-25.4,4.252a2.241,2.241,0,0,0-2.048,1.825L55.536,47.5a2.238,2.238,0,0,0,2.595,2.62c7.992-1.435,21.259-3.7,25.7-4.677,4.212-.928,7.65-3.242,9.429-7.311,1.2-2.754,1.958-5.706,2.913-8.569-3.18,3.87-7.525,5.005-12.057,5.806" transform="translate(14.035 7.476)" fill="#142c51"/>
        <path id="Path_130" data-name="Path 130" d="M89.657,5.806c-3.321.586-24.176,4.168-25.4,4.252a2.243,2.243,0,0,0-2.048,1.825l-1.131,6.053a2.238,2.238,0,0,0,2.595,2.62c7.992-1.435,21.259-3.7,25.7-4.677,4.212-.928,7.65-3.242,9.429-7.311C100,5.815,100.759,2.863,101.713,0c-3.18,3.87-7.525,5.005-12.057,5.806" transform="translate(15.436 0)" fill="#142c51"/>
        <path id="Path_131" data-name="Path 131" d="M45.951,49.5c.723-3.294,7.048-37.2,7.182-38.417a2.243,2.243,0,0,1,1.908-1.972l6.094-.882a2.24,2.24,0,0,1,2.512,2.7c-1.763,7.927-6.457,34.3-7.619,38.7-1.1,4.17-3.556,7.51-7.694,9.12-2.8,1.09-5.781,1.72-8.681,2.556,4-3.016,5.312-7.311,6.3-11.806" transform="translate(10.028 2.075)" fill="#142c51"/>
        <path id="Path_132" data-name="Path 132" d="M81.435,21.65c-2.978.444-5.937,1.021-8.906,1.542-2.989.5-5.211.851-5.587.876a2.244,2.244,0,0,0-2.048,1.825l-1.131,6.053a2.243,2.243,0,0,0,1.683,2.6,4.017,4.017,0,0,0,1.056-.006c1.378-.145,3.662-.512,4.306-.623,3.972-.682,7.946-1.357,11.9-2.151,4.4-.885,8.213-2.882,9.949-7.3,1.223-3.112,1.955-6.417,2.905-9.636-3.439,4.963-8.7,6.02-14.124,6.827" transform="translate(16.115 3.749)" fill="#f89c1c"/>
      </g>
    </g>
  </g>
</svg>
