<svg id="magicpen" xmlns="http://www.w3.org/2000/svg" width="56.915" height="56.915" viewBox="0 0 56.915 56.915">
  <path id="Vector" d="M1.476,39.419a5.024,5.024,0,0,0,7.114,0L39.419,8.591a5.031,5.031,0,0,0-7.114-7.114L1.476,32.305A5.024,5.024,0,0,0,1.476,39.419Z" transform="translate(6.824 9.195)" fill="none" stroke="#18bbc9" stroke-linecap="round" stroke-linejoin="round" stroke-width="3"/>
  <path id="Vector-2" data-name="Vector" d="M7.114,7.114,0,0" transform="translate(35.596 14.205)" fill="none" stroke="#18bbc9" stroke-linecap="round" stroke-linejoin="round" stroke-width="3"/>
  <path id="Vector-3" data-name="Vector" d="M3.557,1.043,7.114,0,6.071,3.557,7.114,7.114,3.557,6.071,0,7.114,1.043,3.557,0,0Z" transform="translate(16.6 4.743)" fill="none" stroke="#18bbc9" stroke-linecap="round" stroke-linejoin="round" stroke-width="3"/>
  <path id="Vector-4" data-name="Vector" d="M3.557,1.043,7.114,0,6.071,3.557,7.114,7.114,3.557,6.071,0,7.114,1.043,3.557,0,0Z" transform="translate(7.114 18.972)" fill="none" stroke="#18bbc9" stroke-linecap="round" stroke-linejoin="round" stroke-width="3"/>
  <path id="Vector-5" data-name="Vector" d="M3.557,1.043,7.114,0,6.071,3.557,7.114,7.114,3.557,6.071,0,7.114,1.043,3.557,0,0Z" transform="translate(42.686 30.829)" fill="none" stroke="#18bbc9" stroke-linecap="round" stroke-linejoin="round" stroke-width="3"/>
  <path id="Vector-6" data-name="Vector" d="M0,0H56.915V56.915H0Z" fill="none" opacity="0"/>
</svg>
