<svg id="receipt-discount" xmlns="http://www.w3.org/2000/svg" width="52.12" height="52.12" viewBox="0 0 52.12 52.12">
  <path id="Vector" d="M13.03,8.687v5.255a5.223,5.223,0,0,1-5.6,5.6H0V4.365A4.384,4.384,0,0,1,4.387,0,8.675,8.675,0,0,1,13.03,8.687Z" transform="translate(34.747 4.343)" fill="none" stroke="#fff" stroke-linecap="round" stroke-linejoin="round" stroke-width="3"/>
  <path id="Vector-2" data-name="Vector" d="M0,10.858v30.4A2.165,2.165,0,0,0,3.475,43l3.714-2.78a2.188,2.188,0,0,1,2.867.217l3.6,3.627a2.189,2.189,0,0,0,3.084,0l3.648-3.648a2.153,2.153,0,0,1,2.823-.2L26.929,43A2.176,2.176,0,0,0,30.4,41.262V4.343A4.356,4.356,0,0,1,34.747,0H8.687C2.172,0,0,3.887,0,8.687Z" transform="translate(4.343 4.343)" fill="none" stroke="#fff" stroke-linecap="round" stroke-linejoin="round" stroke-width="3"/>
  <path id="Vector-3" data-name="Vector" d="M0,11.857,11.857,0" transform="translate(13.616 17.96)" fill="none" stroke="#fff" stroke-linecap="round" stroke-linejoin="round" stroke-width="3"/>
  <path id="Vector-4" data-name="Vector" d="M0,0H52.12V52.12H0Z" transform="translate(0 0)" fill="none" opacity="0"/>
  <path id="Vector-5" data-name="Vector" d="M.495.5h.02" transform="translate(25.402 28.818)" fill="none" stroke="#fff" stroke-linecap="round" stroke-linejoin="round" stroke-width="3"/>
  <path id="Vector-6" data-name="Vector" d="M.495.5h.02" transform="translate(12.958 17.959)" fill="none" stroke="#fff" stroke-linecap="round" stroke-linejoin="round" stroke-width="3"/>
</svg>
