<svg id="receipt-discount" xmlns="http://www.w3.org/2000/svg" width="74.174" height="74.174" viewBox="0 0 74.174 74.174">
  <path id="Vector" d="M18.543,12.362v7.479c0,4.883-3.091,7.974-7.974,7.974H0V6.212A6.239,6.239,0,0,1,6.243,0a12.346,12.346,0,0,1,12.3,12.362Z" transform="translate(49.449 6.181)" fill="none" stroke="#192c4e" stroke-linecap="round" stroke-linejoin="round" stroke-width="4"/>
  <path id="Vector-2" data-name="Vector" d="M0,15.453V58.721a3.081,3.081,0,0,0,4.945,2.472l5.285-3.956a3.114,3.114,0,0,1,4.08.309l5.13,5.161a3.115,3.115,0,0,0,4.389,0l5.192-5.192a3.064,3.064,0,0,1,4.018-.278l5.285,3.956a3.1,3.1,0,0,0,4.945-2.472V6.181A6.2,6.2,0,0,1,49.449,0H12.362C3.091,0,0,5.532,0,12.362Z" transform="translate(6.181 6.181)" fill="none" stroke="#192c4e" stroke-linecap="round" stroke-linejoin="round" stroke-width="4"/>
  <path id="Vector-3" data-name="Vector" d="M0,16.874,16.874,0" transform="translate(19.378 25.559)" fill="none" stroke="#192c4e" stroke-linecap="round" stroke-linejoin="round" stroke-width="4"/>
  <path id="Vector-4" data-name="Vector" d="M0,0H74.174V74.174H0Z" transform="translate(0 0)" fill="none" opacity="0"/>
  <path id="Vector-5" data-name="Vector" d="M.495.5H.522" transform="translate(36.36 41.223)" fill="none" stroke="#192c4e" stroke-linecap="round" stroke-linejoin="round" stroke-width="4"/>
  <path id="Vector-6" data-name="Vector" d="M.495.5H.522" transform="translate(18.651 25.77)" fill="none" stroke="#192c4e" stroke-linecap="round" stroke-linejoin="round" stroke-width="4"/>
</svg>
