<!-- Generated by IcoMoon.io -->
<svg version="1.1" xmlns="http://www.w3.org/2000/svg" width="32" height="32" viewBox="0 0 32 32">
<title>Service1</title>
<path fill="none" stroke="#18bbc9" stroke-linejoin="round" stroke-linecap="round" stroke-miterlimit="4" stroke-width="1.2965" d="M4.667 27.333c0.511 0.513 1.219 0.83 2 0.83s1.489-0.317 2-0.83l17.332-17.333c0.512-0.512 0.829-1.219 0.829-2 0-1.562-1.267-2.829-2.829-2.829-0.781 0-1.488 0.317-2 0.829l-17.332 17.334c-0.513 0.511-0.83 1.219-0.83 2s0.317 1.489 0.83 2l0 0z"></path>
<path fill="none" stroke="#18bbc9" stroke-linejoin="round" stroke-linecap="round" stroke-miterlimit="4" stroke-width="1.2965" d="M24.014 11.987l-4.001-4.001"></path>
<path fill="none" stroke="#18bbc9" stroke-linejoin="round" stroke-linecap="round" stroke-miterlimit="4" stroke-width="1.2965" d="M11.334 3.254l2-0.587-0.588 2 0.588 2-2-0.588-2 0.588 0.587-2-0.587-2z"></path>
<path fill="none" stroke="#18bbc9" stroke-linejoin="round" stroke-linecap="round" stroke-miterlimit="4" stroke-width="1.2965" d="M6 11.253l2-0.587-0.588 2 0.588 2-2-0.588-2 0.588 0.587-2-0.587-2z"></path>
<path fill="none" stroke="#18bbc9" stroke-linejoin="round" stroke-linecap="round" stroke-miterlimit="4" stroke-width="1.2965" d="M26 17.92l2-0.587-0.587 2 0.587 2-2-0.587-2 0.587 0.587-2-0.587-2z"></path>
</svg>
