<!-- Generated by IcoMoon.io -->
<svg version="1.1" xmlns="http://www.w3.org/2000/svg" width="32" height="32" viewBox="0 0 32 32">
<title>Service2</title>
<path fill="none" stroke-linejoin="round" stroke-linecap="round" stroke-miterlimit="4" stroke-width="1.7257" stroke="#18bbc9" d="M29.333 8v3.227c0 2.107-1.334 3.44-3.44 3.44h-4.56v-9.32c0.007-1.482 1.209-2.68 2.692-2.68 0.001 0 0.001 0 0.002 0h-0c2.933 0.011 5.306 2.392 5.306 5.326 0 0.002 0 0.005 0 0.007v-0z"></path>
<path fill="none" stroke-linejoin="round" stroke-linecap="round" stroke-miterlimit="4" stroke-width="1.7257" stroke="#18bbc9" d="M2.667 9.333v18.667c-0 0.002-0 0.005-0 0.008 0 0.734 0.595 1.329 1.329 1.329 0.304 0 0.584-0.102 0.807-0.273l-0.003 0.002 2.28-1.707c0.221-0.167 0.501-0.267 0.804-0.267 0.374 0 0.713 0.153 0.956 0.4l0 0 2.213 2.227c0.243 0.241 0.577 0.39 0.947 0.39s0.704-0.149 0.947-0.39l2.24-2.24c0.239-0.24 0.57-0.388 0.935-0.388 0.301 0 0.579 0.101 0.801 0.27l-0.003-0.002 2.28 1.707c0.22 0.164 0.496 0.263 0.796 0.263 0.736 0 1.333-0.594 1.337-1.329v-22.667c0.005-1.471 1.195-2.662 2.666-2.667h-16c-4 0-5.333 2.387-5.333 5.333z"></path>
<path fill="none" stroke-linejoin="round" stroke-linecap="round" stroke-miterlimit="4" stroke-width="1.7257" stroke="#18bbc9" d="M8.36 18.306l7.28-7.28"></path>
<path fill="none" stroke-linejoin="round" stroke-linecap="round" stroke-miterlimit="4" stroke-width="1.7257" stroke="#18bbc9" d="M15.9 18h0.012"></path>
<path fill="none" stroke-linejoin="round" stroke-linecap="round" stroke-miterlimit="4" stroke-width="1.7257" stroke="#18bbc9" d="M8.26 11.333h0.012"></path>
</svg>
