<!-- Generated by IcoMoon.io -->
<svg version="1.1" xmlns="http://www.w3.org/2000/svg" width="39" height="32" viewBox="0 0 39 32">
<title>tw</title>
<path fill="#fff" d="M0 28.37c3.505 2.276 7.791 3.63 12.394 3.63 12.688 0 22.974-10.286 22.974-22.974 0-0.372-0.009-0.741-0.026-1.109l0.002 0.052c1.588-1.156 2.926-2.541 3.994-4.124l0.037-0.058c-1.351 0.617-2.918 1.065-4.562 1.264l-0.077 0.008c1.672-1.010 2.928-2.564 3.537-4.411l0.016-0.057c-1.477 0.89-3.195 1.568-5.026 1.937l-0.104 0.017c-1.478-1.572-3.571-2.55-5.893-2.55-4.465 0-8.084 3.619-8.084 8.084 0 0.651 0.077 1.284 0.222 1.891l-0.011-0.055c-6.73-0.346-12.65-3.545-16.617-8.402l-0.033-0.041c-0.688 1.165-1.095 2.567-1.095 4.063 0 2.792 1.415 5.253 3.566 6.706l0.029 0.018c-1.35-0.044-2.605-0.413-3.7-1.032l0.040 0.021c-0 0.029-0.001 0.063-0.001 0.097 0 3.898 2.757 7.151 6.428 7.917l0.053 0.009c-0.635 0.18-1.364 0.283-2.117 0.283-0.541 0-1.069-0.053-1.58-0.155l0.051 0.009c1.061 3.236 4.025 5.544 7.538 5.611l0.008 0c-2.732 2.161-6.228 3.467-10.029 3.467-0.682 0-1.355-0.042-2.015-0.124l0.079 0.008z"></path>
</svg>
