<svg xmlns="http://www.w3.org/2000/svg" width="24" height="24" viewBox="0 0 24 24">
  <g id="vuesax_linear_search-normal" data-name="vuesax/linear/search-normal" transform="translate(-428 -188)">
    <g id="search-normal">
      <path id="Vector" d="M9.5-.75A10.25,10.25,0,1,1-.75,9.5,10.262,10.262,0,0,1,9.5-.75Zm0,19A8.75,8.75,0,1,0,.75,9.5,8.76,8.76,0,0,0,9.5,18.25Z" transform="translate(430 190)" fill="#575762"/>
      <path id="Vector-2" data-name="Vector" d="M2,2.75a.748.748,0,0,1-.53-.22l-2-2A.75.75,0,0,1-.53-.53.75.75,0,0,1,.53-.53l2,2A.75.75,0,0,1,2,2.75Z" transform="translate(448 208)" fill="#575762"/>
      <path id="Vector-3" data-name="Vector" d="M0,0H24V24H0Z" transform="translate(428 188)" fill="none" opacity="0"/>
    </g>
  </g>
</svg>
