<svg id="vuesax_linear_magicpen" data-name="vuesax/linear/magicpen" xmlns="http://www.w3.org/2000/svg" width="86.385" height="86.385" viewBox="0 0 86.385 86.385">
  <g id="magicpen" transform="translate(0 0)">
    <path id="Vector" d="M2.241,59.83a7.625,7.625,0,0,0,10.8,0L59.83,13.039a7.635,7.635,0,0,0-10.8-10.8L2.241,49.032A7.625,7.625,0,0,0,2.241,59.83Z" transform="translate(10.357 13.957)" fill="none" stroke="#1a1a1a" stroke-linecap="round" stroke-linejoin="round" stroke-width="3.5"/>
    <path id="Vector-2" data-name="Vector" d="M10.8,10.8,0,0" transform="translate(54.026 21.56)" fill="none" stroke="#1a1a1a" stroke-linecap="round" stroke-linejoin="round" stroke-width="3.5"/>
    <path id="Vector-3" data-name="Vector" d="M5.4,1.584,10.8,0,9.214,5.4,10.8,10.8,5.4,9.214,0,10.8,1.584,5.4,0,0Z" transform="translate(25.196 7.199)" fill="none" stroke="#1a1a1a" stroke-linecap="round" stroke-linejoin="round" stroke-width="3.5"/>
    <path id="Vector-4" data-name="Vector" d="M5.4,1.584,10.8,0,9.214,5.4,10.8,10.8,5.4,9.214,0,10.8,1.584,5.4,0,0Z" transform="translate(10.798 28.795)" fill="none" stroke="#1a1a1a" stroke-linecap="round" stroke-linejoin="round" stroke-width="3.5"/>
    <path id="Vector-5" data-name="Vector" d="M5.4,1.584,10.8,0,9.214,5.4,10.8,10.8,5.4,9.214,0,10.8,1.584,5.4,0,0Z" transform="translate(64.788 46.792)" fill="none" stroke="#1a1a1a" stroke-linecap="round" stroke-linejoin="round" stroke-width="3.5"/>
    <path id="Vector-6" data-name="Vector" d="M0,0H86.385V86.385H0Z" fill="none" opacity="0"/>
  </g>
</svg>
